<svg width="260" height="72" viewBox="0 0 260 72" fill="none" xmlns="http://www.w3.org/2000/svg">
<path d="M11.3182 69.8184H2.45455L28.0909 0.000175476H36.8182L62.4545 69.8184H53.5909L32.7273 11.0456H32.1818L11.3182 69.8184ZM14.5909 42.5456H50.3182V50.0456H14.5909V42.5456ZM80.2841 38.3184V69.8184H72.2386V17.4547H80.0114V25.6365H80.6932C81.9205 22.9775 83.7841 20.8411 86.2841 19.2275C88.7841 17.5911 92.0114 16.7729 95.9659 16.7729C99.5114 16.7729 102.614 17.5002 105.273 18.9547C107.932 20.3865 110 22.5684 111.477 25.5002C112.955 28.4093 113.693 32.0911 113.693 36.5456V69.8184H105.648V37.0911C105.648 32.9775 104.58 29.7729 102.443 27.4774C100.307 25.1593 97.375 24.0002 93.6477 24.0002C91.0795 24.0002 88.7841 24.557 86.7614 25.6706C84.7614 26.7843 83.1818 28.4093 82.0227 30.5456C80.8636 32.682 80.2841 35.2729 80.2841 38.3184ZM143.804 71.0456C140.486 71.0456 137.474 70.4206 134.77 69.1706C132.065 67.8979 129.918 66.0684 128.327 63.682C126.736 61.2729 125.94 58.3638 125.94 54.9547C125.94 51.9547 126.531 49.5229 127.713 47.6593C128.895 45.7729 130.474 44.2956 132.452 43.2274C134.429 42.1593 136.611 41.3638 138.997 40.8411C141.406 40.2956 143.827 39.8638 146.259 39.5456C149.44 39.1365 152.02 38.8297 153.997 38.6252C155.997 38.3979 157.452 38.0229 158.361 37.5002C159.293 36.9774 159.759 36.0684 159.759 34.7729V34.5002C159.759 31.1365 158.838 28.5229 156.997 26.6593C155.179 24.7956 152.418 23.8638 148.713 23.8638C144.872 23.8638 141.861 24.7047 139.679 26.3865C137.497 28.0684 135.963 29.8638 135.077 31.7729L127.44 29.0456C128.804 25.8638 130.622 23.3865 132.895 21.6138C135.19 19.8184 137.69 18.5684 140.395 17.8638C143.122 17.1365 145.804 16.7729 148.44 16.7729C150.122 16.7729 152.054 16.9774 154.236 17.3865C156.44 17.7729 158.565 18.5797 160.611 19.807C162.679 21.0343 164.395 22.8865 165.759 25.3638C167.122 27.8411 167.804 31.1593 167.804 35.3184V69.8184H159.759V62.7274H159.349C158.804 63.8638 157.895 65.0797 156.622 66.3752C155.349 67.6706 153.656 68.7729 151.543 69.682C149.429 70.5911 146.849 71.0456 143.804 71.0456ZM145.031 63.8184C148.213 63.8184 150.895 63.1934 153.077 61.9434C155.281 60.6934 156.94 59.0797 158.054 57.1024C159.19 55.1252 159.759 53.0456 159.759 50.8638V43.5002C159.418 43.9093 158.668 44.2843 157.509 44.6252C156.372 44.9434 155.054 45.2274 153.554 45.4774C152.077 45.7047 150.634 45.9093 149.224 46.0911C147.838 46.2502 146.713 46.3865 145.849 46.5002C143.759 46.7729 141.804 47.2161 139.986 47.8297C138.19 48.4206 136.736 49.3184 135.622 50.5229C134.531 51.7047 133.986 53.3184 133.986 55.3638C133.986 58.1593 135.02 60.2729 137.088 61.7047C139.179 63.1138 141.827 63.8184 145.031 63.8184ZM182.489 69.8184V17.4547H190.261V25.6365H190.943C192.034 22.8411 193.795 20.6706 196.227 19.1252C198.659 17.557 201.58 16.7729 204.989 16.7729C208.443 16.7729 211.318 17.557 213.614 19.1252C215.932 20.6706 217.739 22.8411 219.034 25.6365H219.58C220.92 22.932 222.932 20.7843 225.614 19.1934C228.295 17.5797 231.511 16.7729 235.261 16.7729C239.943 16.7729 243.773 18.2388 246.75 21.1706C249.727 24.0797 251.216 28.6138 251.216 34.7729V69.8184H243.17V34.7729C243.17 30.9093 242.114 28.1479 240 26.4888C237.886 24.8297 235.398 24.0002 232.534 24.0002C228.852 24.0002 226 25.1138 223.977 27.3411C221.955 29.5456 220.943 32.3411 220.943 35.7274V69.8184H212.761V33.9547C212.761 30.9774 211.795 28.5797 209.864 26.7615C207.932 24.9206 205.443 24.0002 202.398 24.0002C200.307 24.0002 198.352 24.557 196.534 25.6706C194.739 26.7843 193.284 28.3297 192.17 30.307C191.08 32.2615 190.534 34.5229 190.534 37.0911V69.8184H182.489Z" fill="black"/>
</svg>
