<svg width="583" height="80" viewBox="0 0 583 80" fill="none" xmlns="http://www.w3.org/2000/svg">
<path fill-rule="evenodd" clip-rule="evenodd" d="M6.66284 3.3335H21.7775V75.4535H6.66284V3.3335ZM36.689 3.3335H51.8037V75.4535H36.689V3.3335ZM66.7118 3.3335H111.446V15.3535H81.8299V32.5268H109.417V44.5468H81.8265V63.4335H111.446V75.4535H66.7118V3.3335ZM120.678 3.3335H134.979V75.4535H120.674L120.678 3.3335ZM143.601 48.3835C143.601 28.6868 153.442 20.2035 168.757 20.2035C184.075 20.2035 192.8 28.5868 192.8 48.5868V51.8202H157.703C158.21 63.5368 161.757 67.4735 168.557 67.4735C173.931 67.4735 177.279 64.3402 177.885 58.8902H192.19C191.277 70.8068 181.336 76.6668 168.557 76.6668C152.326 76.6668 143.601 68.0802 143.601 48.3835ZM178.698 42.4235C177.988 32.5235 174.54 29.2902 168.557 29.2902C162.57 29.2902 158.816 32.6235 157.803 42.4235H178.698ZM210.45 21.4135H195.841L213.491 75.4568H229.216L246.865 21.4135H232.257L221.207 62.1235L210.446 21.4135H210.45ZM249.604 48.3835C249.604 28.6868 259.445 20.2035 274.763 20.2035C290.077 20.2035 298.802 28.5868 298.802 48.5868V51.8202H263.706C264.212 63.5368 267.764 67.4735 274.56 67.4735C279.937 67.4735 283.281 64.3402 283.891 58.8902H298.193C297.28 70.8068 287.339 76.6668 274.56 76.6668C258.329 76.6668 249.604 68.0802 249.604 48.3835ZM284.704 42.4235C283.994 32.5235 280.543 29.2902 274.56 29.2902C268.573 29.2902 264.822 32.6235 263.806 42.4235H284.704ZM321.933 43.6335C321.933 35.1502 325.987 30.5035 332.277 30.5035C337.45 30.5035 340.392 33.7368 340.392 40.7068V75.4535H354.697V38.4868C354.697 25.9602 347.595 20.2035 337.247 20.2035C330.251 20.2035 324.468 23.7368 321.933 28.3835V21.4168H307.424V75.4535H321.933V43.6335ZM366.56 3.3335H381.675V63.4335H410.079V75.4535H366.56V3.3335Z" fill="black"/>
<path fill-rule="evenodd" clip-rule="evenodd" d="M413.63 48.3835C413.63 27.7768 423.165 20.2035 435.438 20.2035C441.524 20.2035 447.105 23.6368 449.337 27.2702V21.4168H463.942V75.4568H449.743V69.0935C447.611 73.3335 441.628 76.6668 435.031 76.6668C422.049 76.6668 413.63 68.3835 413.63 48.3835ZM439.192 30.8068C446.292 30.8068 450.146 36.1602 450.146 48.3835C450.146 60.6068 446.292 66.0602 439.192 66.0602C432.09 66.0602 428.032 60.6068 428.032 48.3835C428.032 36.1602 432.09 30.8068 439.192 30.8068ZM489.2 69.0902V75.4568H474.999V3.3335H489.304V27.2735C491.736 23.5368 497.419 20.2035 503.506 20.2035C515.475 20.2035 525.01 27.7768 525.01 48.3835C525.01 68.9902 515.675 76.6668 503.199 76.6668C496.606 76.6668 491.229 73.3335 489.2 69.0902ZM499.448 30.9102C506.547 30.9102 510.605 36.1602 510.605 48.3835C510.605 60.6068 506.547 66.0602 499.448 66.0602C492.345 66.0602 488.491 60.6068 488.491 48.3835C488.491 36.1602 492.345 30.9102 499.448 30.9102Z" fill="black"/>
<path fill-rule="evenodd" clip-rule="evenodd" d="M530.893 59.3931H545.195C545.398 65.0498 548.443 67.7765 553.817 67.7765C559.194 67.7765 562.239 65.3531 562.239 61.1098C562.239 57.2731 559.903 55.8598 554.833 54.6431L550.469 53.5365C538.096 50.4031 531.906 47.0698 531.906 36.8698C531.906 26.6665 541.444 20.2031 553.613 20.2031C565.786 20.2031 575.018 24.9498 575.424 36.1598H561.122C560.816 31.2131 557.774 29.0931 553.414 29.0931C549.049 29.0931 546.008 31.2131 546.008 35.2531C546.008 38.9865 548.443 40.4031 552.701 41.4131L557.165 42.5265C568.931 45.4531 576.337 48.3831 576.337 59.2931C576.337 70.2031 566.599 76.6665 553.414 76.6665C539.108 76.6665 531.196 71.3131 530.893 59.3931Z" fill="black"/>
</svg>
