<svg width="433" height="80" viewBox="0 0 433 80" fill="none" xmlns="http://www.w3.org/2000/svg">
<g clip-path="url(#clip0_18_177)">
<path d="M40.1225 79.9743C62.2681 79.9743 80.2206 62.0777 80.2206 40.0011C80.2206 17.9245 62.2681 0.027832 40.1225 0.027832C17.9769 0.027832 0.0244141 17.9245 0.0244141 40.0011C0.0244141 62.0777 17.9769 79.9743 40.1225 79.9743Z" fill="black" fill-opacity="0.980392"/>
<path d="M37.3558 18.1279L29.3395 35.9335L25.6766 44.069L17.6597 61.8745L54.5692 35.9335H37.2517L62.5854 18.1279H37.3558Z" fill="white" fill-opacity="0.980392"/>
<path d="M111.88 74.268V5.23635H153.513V13.5042H121.541V34.3233H149.927V42.4915H121.541V74.268H111.88ZM177.218 67.5939C179.409 67.5939 181.334 67.5607 182.994 67.4943C184.721 67.3615 186.148 67.1623 187.277 66.8966V51.4567C186.613 51.1246 185.518 50.859 183.99 50.6598C182.53 50.3941 180.737 50.2613 178.612 50.2613C177.218 50.2613 175.724 50.3609 174.13 50.5602C172.603 50.7594 171.175 51.191 169.847 51.8551C168.585 52.4528 167.523 53.3161 166.66 54.445C165.797 55.5076 165.365 56.9354 165.365 58.7284C165.365 62.0488 166.427 64.3731 168.552 65.7013C170.677 66.963 173.566 67.5939 177.218 67.5939ZM176.421 21.1744C180.139 21.1744 183.26 21.6725 185.783 22.6686C188.373 23.5983 190.431 24.9597 191.958 26.7527C193.552 28.4793 194.681 30.5712 195.345 33.0283C196.009 35.419 196.341 38.0754 196.341 40.9973V73.3715C195.544 73.5043 194.415 73.7035 192.954 73.9691C191.56 74.1684 189.966 74.3676 188.174 74.5668C186.381 74.7661 184.422 74.9321 182.297 75.0649C180.239 75.2641 178.18 75.3637 176.122 75.3637C173.2 75.3637 170.511 75.0649 168.054 74.4672C165.597 73.8695 163.473 72.9398 161.68 71.6781C159.887 70.3499 158.493 68.6233 157.497 66.4982C156.501 64.3731 156.003 61.8164 156.003 58.828C156.003 55.9724 156.567 53.5153 157.696 51.4567C158.891 49.398 160.485 47.7378 162.477 46.476C164.469 45.2143 166.793 44.2845 169.449 43.6869C172.105 43.0892 174.894 42.7904 177.815 42.7904C178.745 42.7904 179.708 42.8568 180.704 42.9896C181.7 43.056 182.629 43.1888 183.492 43.388C184.422 43.5209 185.219 43.6537 185.883 43.7865C186.547 43.9193 187.012 44.0189 187.277 44.0853V41.4954C187.277 39.968 187.111 38.4738 186.779 37.0128C186.447 35.4854 185.85 34.1573 184.986 33.0283C184.123 31.833 182.928 30.9032 181.401 30.2392C179.94 29.5087 178.014 29.1434 175.624 29.1434C172.57 29.1434 169.88 29.3758 167.556 29.8407C165.299 30.2392 163.605 30.6708 162.477 31.1357L161.381 23.4655C162.576 22.9342 164.568 22.4362 167.357 21.9713C170.146 21.44 173.167 21.1744 176.421 21.1744ZM223.731 67.5939C227.516 67.5939 230.305 67.0959 232.098 66.0997C233.957 65.1036 234.886 63.5098 234.886 61.3183C234.886 59.0604 233.99 57.2674 232.197 55.9392C230.404 54.6111 227.449 53.1169 223.333 51.4567C221.341 50.6598 219.415 49.8629 217.556 49.066C215.763 48.2026 214.203 47.2065 212.875 46.0776C211.547 44.9486 210.484 43.5873 209.687 41.9935C208.891 40.3996 208.492 38.4406 208.492 36.1163C208.492 31.5341 210.185 27.9149 213.572 25.2585C216.958 22.5358 221.573 21.1744 227.416 21.1744C228.877 21.1744 230.338 21.274 231.799 21.4732C233.26 21.606 234.621 21.8053 235.882 22.0709C237.144 22.2701 238.24 22.5026 239.169 22.7682C240.165 23.0338 240.929 23.2663 241.46 23.4655L239.767 31.4345C238.771 30.9032 237.21 30.372 235.086 29.8407C232.961 29.243 230.404 28.9442 227.416 28.9442C224.827 28.9442 222.569 29.4755 220.643 30.538C218.718 31.5341 217.755 33.1279 217.755 35.3194C217.755 36.4483 217.954 37.4445 218.353 38.3078C218.817 39.1711 219.481 39.968 220.345 40.6985C221.274 41.3626 222.403 41.9935 223.731 42.5911C225.059 43.1888 226.653 43.8197 228.512 44.4838C230.969 45.4135 233.16 46.3432 235.086 47.2729C237.011 48.1362 238.638 49.1656 239.966 50.3609C241.36 51.5563 242.423 53.0173 243.153 54.7439C243.884 56.4041 244.249 58.4628 244.249 60.9199C244.249 65.7013 242.456 69.3206 238.87 71.7777C235.351 74.2348 230.305 75.4633 223.731 75.4633C219.149 75.4633 215.564 75.0649 212.974 74.268C210.385 73.5375 208.625 72.973 207.695 72.5746L209.389 64.6055C210.451 65.004 212.144 65.6017 214.468 66.3986C216.792 67.1955 219.88 67.5939 223.731 67.5939ZM264.766 22.4694H284.388V30.2392H264.766V54.1462C264.766 56.7361 264.966 58.8944 265.364 60.621C265.762 62.2812 266.36 63.6094 267.157 64.6055C267.954 65.5353 268.95 66.1994 270.145 66.5978C271.34 66.9963 272.735 67.1955 274.328 67.1955C277.117 67.1955 279.341 66.8966 281.001 66.299C282.728 65.6349 283.923 65.17 284.587 64.9044L286.38 72.5746C285.45 73.0394 283.823 73.6039 281.499 74.268C279.175 74.9985 276.519 75.3637 273.531 75.3637C270.012 75.3637 267.09 74.9321 264.766 74.0688C262.509 73.139 260.683 71.7777 259.288 69.9846C257.894 68.1916 256.898 66.0001 256.3 63.4102C255.769 60.7539 255.504 57.6991 255.504 54.2458V8.02551L264.766 6.4317V22.4694ZM342.853 74.268C341.725 71.2796 340.662 68.3576 339.666 65.5021C338.67 62.5801 337.641 59.6249 336.578 56.6365H305.304L299.029 74.268H288.969C291.625 66.9631 294.115 60.2226 296.439 54.0466C298.763 47.8042 301.021 41.8938 303.212 36.3155C305.47 30.7372 307.694 25.4245 309.885 20.3775C312.077 15.264 314.367 10.217 316.758 5.23635H325.622C328.013 10.217 330.304 15.264 332.495 20.3775C334.686 25.4245 336.877 30.7372 339.068 36.3155C341.326 41.8938 343.617 47.8042 345.941 54.0466C348.265 60.2226 350.755 66.9631 353.411 74.268H342.853ZM333.79 48.6675C331.665 42.89 329.54 37.3117 327.415 31.9326C325.357 26.4871 323.199 21.274 320.941 16.2934C318.617 21.274 316.393 26.4871 314.268 31.9326C312.209 37.3117 310.151 42.89 308.093 48.6675H333.79ZM381.1 4.53906C390.794 4.53906 398.231 6.3985 403.41 10.1174C408.656 13.7698 411.279 19.2485 411.279 26.5535C411.279 30.538 410.548 33.958 409.088 36.8136C407.693 39.6028 405.635 41.8938 402.912 43.6869C400.256 45.4135 397.003 46.6753 393.152 47.4722C389.3 48.2691 384.951 48.6675 380.104 48.6675H372.435V74.268H362.773V6.23248C365.496 5.56839 368.517 5.13674 371.837 4.93751C375.223 4.67188 378.311 4.53906 381.1 4.53906ZM381.897 13.0061C377.78 13.0061 374.626 13.1058 372.435 13.305V40.3997H379.705C383.025 40.3997 386.013 40.2004 388.669 39.802C391.325 39.3371 393.55 38.6066 395.343 37.6105C397.202 36.548 398.63 35.1202 399.626 33.3271C400.622 31.5341 401.12 29.243 401.12 26.4539C401.12 23.7975 400.588 21.606 399.526 19.8794C398.53 18.1528 397.136 16.7914 395.343 15.7953C393.616 14.7328 391.591 14.0023 389.267 13.6038C386.943 13.2054 384.486 13.0061 381.897 13.0061ZM423.331 5.23635H432.992V74.268H423.331V5.23635Z" fill="black"/>
</g>
<defs>
<clipPath id="clip0_18_177">
<rect width="433" height="80" fill="white"/>
</clipPath>
</defs>
</svg>
